<?xml version="1.0" encoding="utf-8"?>
<!-- Generator: Adobe Illustrator 22.0.0, SVG Export Plug-In . SVG Version: 6.00 Build 0)  -->
<svg version="1.1" id="Слой_2" xmlns="http://www.w3.org/2000/svg" xmlns:xlink="http://www.w3.org/1999/xlink" x="0px" y="0px"
	 viewBox="0 0 736.1 454" style="enable-background:new 0 0 736.1 454;" xml:space="preserve">
<style type="text/css">
	.st0{fill:#bd9128;}
</style>
<g>
	<path class="st0" d="M628.2,233.3h-12.1v-89.6h12.1V233.3z"/>
	<path class="st0" d="M728.7,188.5c0,6.7-1.1,12.8-3.2,18.3s-5.1,10.2-9,14.1c-3.9,3.9-8.5,6.9-14,9.1c-5.4,2.1-11.4,3.2-18,3.2
		h-33.4v-89.6h33.4c6.6,0,12.6,1.1,18,3.2c5.4,2.1,10.1,5.2,14,9.1s6.9,8.7,9,14.2S728.7,181.8,728.7,188.5z M716.2,188.5
		c0-5.5-0.8-10.4-2.3-14.8c-1.5-4.3-3.6-8-6.4-11s-6.1-5.3-10-6.9c-3.9-1.6-8.3-2.4-13.1-2.4h-21.3v69.9h21.3
		c4.8,0,9.2-0.8,13.1-2.4c3.9-1.6,7.3-3.9,10-6.8c2.8-3,4.9-6.6,6.4-11C715.5,199,716.2,194,716.2,188.5z"/>
</g>
<g>
	<path class="st0" d="M481.5,271.5c5.2,0,9.7,0.6,13.6,1.8c3.9,1.2,7,2.9,9.6,5.1c2.5,2.2,4.4,4.9,5.7,8.1c1.2,3.1,1.9,6.7,1.9,10.5
		c0,3.8-0.7,7.3-2,10.5s-3.3,5.9-5.9,8.2c-2.6,2.3-5.8,4.1-9.6,5.4s-8.2,1.9-13.2,1.9h-13.2v30.8h-11.1v-82.4H481.5z M481.5,314.2
		c3.2,0,6-0.4,8.4-1.3c2.4-0.8,4.5-2,6.2-3.5c1.7-1.5,2.9-3.3,3.8-5.4c0.8-2.1,1.3-4.4,1.3-7c0-5.3-1.6-9.4-4.9-12.3
		c-3.2-3-8.2-4.4-14.7-4.4h-13.2v33.9H481.5z"/>
	<path class="st0" d="M577,344.8l-0.1,9.1h-50.8v-82.4H577v9.1h-39.6V308h32.1v8.7h-32.1v28.1H577z"/>
	<path class="st0" d="M653.5,353.9h-9.9c-2,0-3.5-0.8-4.5-2.4l-21.4-29.4c-0.7-0.9-1.4-1.6-2.1-2c-0.7-0.4-1.9-0.6-3.5-0.6h-8.5
		v34.4h-11.1v-82.4h23.3c5.2,0,9.7,0.5,13.5,1.6c3.8,1.1,6.9,2.6,9.4,4.6c2.5,2,4.3,4.4,5.5,7.2c1.2,2.8,1.8,6,1.8,9.5
		c0,2.9-0.5,5.6-1.4,8.2c-0.9,2.5-2.3,4.8-4,6.8c-1.7,2-3.9,3.7-6.4,5.1c-2.5,1.4-5.4,2.5-8.5,3.2c1.4,0.8,2.6,2,3.7,3.5
		L653.5,353.9z M615.4,311.4c3.2,0,6.1-0.4,8.5-1.2c2.5-0.8,4.5-1.9,6.2-3.3c1.7-1.4,2.9-3.2,3.8-5.1c0.8-2,1.3-4.2,1.3-6.6
		c0-4.9-1.6-8.6-4.8-11.1c-3.2-2.5-8-3.7-14.5-3.7h-12.2v31.1H615.4z"/>
	<path class="st0" d="M731.6,353.9H723c-1,0-1.8-0.2-2.4-0.7s-1.1-1.1-1.4-1.9l-7.7-19.9h-37l-7.7,19.9c-0.2,0.7-0.7,1.3-1.3,1.8
		c-0.7,0.5-1.5,0.8-2.4,0.8h-8.6l32.9-82.4h11.3L731.6,353.9z M708.4,323.3l-12.9-33.5c-0.4-1-0.8-2.2-1.2-3.5
		c-0.4-1.3-0.8-2.7-1.2-4.2c-0.8,3.1-1.6,5.7-2.5,7.8l-12.9,33.5H708.4z"/>
</g>
<g>
	<g>
		<path class="st0" d="M566.8,95.7l-31,35.6l0,0c6.4,12.7,6.7,27.5-0.4,39.9c-11.9,20.6-39.9,26.6-62.6,13.5
			c-22.7-13.1-31.5-40.4-19.6-61c10-17.4,31.6-24.4,51.7-18.2l0,0L536,68.4c-12-6.4-25.7-9.9-40.2-9.9c-48,0-87,39.4-87,88
			s39,88,87,88s87-39.4,87-88C582.7,127.6,576.8,110.1,566.8,95.7z"/>
	</g>
	<path class="st0" d="M317.2,72.1c-67.6,0-124.4,45.9-140.1,108h61.6l0.3,0.2c13.4-31.9,43.9-54.2,79.4-54.2
		c47.9,0,86.8,40.6,86.8,90.8c0,50.1-38.8,90.8-86.8,90.8c-34.1,0-65.1-22.1-79.3-52c-12,9.9-27,21-48,28
		c24.1,45.8,70.2,74.5,126,74.5c79.8,0,144.5-64,144.5-143S397,72.1,317.2,72.1z"/>
	<path class="st0" d="M225,184.1c0,0.1-0.1,0.2-0.1,0.3c-13.7,31.7-44,53.7-79.2,53.7c-48,0-87-41.1-87-91.8s39-91.7,87-91.7
		c34.4,0,64.2,21.1,78.3,51.7c7.6-6.1,16.7-11.9,26.7-17.1c7.9-4.1,15.8-7.4,23.3-10C249.7,33.1,201.1,1.8,145.3,2.1
		C64.3,2.6-0.8,70.2,1.7,151.1c2.4,77.7,66.1,140,144.4,140c66.8,0,123.1-45.4,139.6-107H225z"/>
</g>
<g>
	<path class="st0" d="M27.2,435c0.3,0,0.5,0.1,0.7,0.3l1.8,2c-1.4,1.6-3.1,2.9-5.1,3.8c-2,0.9-4.4,1.4-7.3,1.4
		c-2.5,0-4.7-0.4-6.7-1.3c-2-0.9-3.7-2.1-5.2-3.6c-1.4-1.5-2.5-3.4-3.3-5.6c-0.8-2.2-1.2-4.5-1.2-7.1c0-2.6,0.4-5,1.2-7.1
		c0.8-2.2,2-4,3.4-5.6c1.5-1.6,3.3-2.8,5.3-3.6c2.1-0.9,4.3-1.3,6.8-1.3c2.4,0,4.6,0.4,6.5,1.2s3.5,1.8,4.9,3.2l-1.5,2.1
		c-0.1,0.2-0.2,0.3-0.4,0.4c-0.2,0.1-0.4,0.2-0.6,0.2c-0.3,0-0.6-0.2-1.1-0.5c-0.4-0.3-1-0.7-1.6-1c-0.7-0.4-1.5-0.7-2.5-1
		c-1-0.3-2.2-0.5-3.7-0.5c-1.8,0-3.4,0.3-4.9,0.9c-1.5,0.6-2.7,1.5-3.8,2.7s-1.9,2.6-2.5,4.3c-0.6,1.7-0.9,3.6-0.9,5.7
		c0,2.1,0.3,4.1,0.9,5.7c0.6,1.7,1.5,3.1,2.5,4.3c1.1,1.2,2.3,2,3.8,2.7c1.4,0.6,3,0.9,4.7,0.9c1,0,1.9-0.1,2.8-0.2
		c0.8-0.1,1.6-0.3,2.3-0.6c0.7-0.3,1.3-0.6,1.9-1c0.6-0.4,1.2-0.9,1.8-1.4C26.6,435.1,26.9,435,27.2,435z"/>
	<path class="st0" d="M79.5,442.1h-4.6c-0.4,0-0.6-0.1-0.8-0.3c-0.2-0.2-0.4-0.4-0.5-0.6l-9.2-14.4c-0.1,0.4-0.3,0.7-0.4,1l-9,13.5
		c-0.2,0.2-0.3,0.4-0.5,0.6c-0.2,0.2-0.4,0.3-0.8,0.3h-4.3l11.8-17.7l-11.4-16.7h4.6c0.3,0,0.6,0.1,0.7,0.2c0.2,0.1,0.3,0.3,0.4,0.5
		l9,13.8c0.1-0.3,0.3-0.7,0.5-1.1l8.5-12.6c0.1-0.2,0.3-0.4,0.5-0.5c0.2-0.1,0.4-0.2,0.6-0.2h4.4l-11.4,16.5L79.5,442.1z"/>
	<path class="st0" d="M107.4,442.1h-4.7v-34.4h4.7V442.1z"/>
	<path class="st0" d="M164.2,424.9c0,2.6-0.4,4.9-1.2,7c-0.8,2.1-2,3.9-3.5,5.4s-3.3,2.7-5.4,3.5c-2.1,0.8-4.4,1.2-6.9,1.2h-12.8
		v-34.4h12.8c2.5,0,4.8,0.4,6.9,1.2c2.1,0.8,3.9,2,5.4,3.5c1.5,1.5,2.6,3.3,3.5,5.4S164.2,422.3,164.2,424.9z M159.4,424.9
		c0-2.1-0.3-4-0.9-5.7s-1.4-3.1-2.4-4.2c-1.1-1.2-2.3-2-3.8-2.6s-3.2-0.9-5-0.9H139v26.9h8.2c1.9,0,3.5-0.3,5-0.9s2.8-1.5,3.8-2.6
		c1.1-1.1,1.9-2.5,2.4-4.2S159.4,427,159.4,424.9z"/>
	<path class="st0" d="M251.4,424.9c0,2.6-0.4,4.9-1.2,7.1s-2,4-3.5,5.6c-1.5,1.6-3.3,2.8-5.4,3.6s-4.4,1.3-6.9,1.3
		c-2.5,0-4.8-0.4-6.9-1.3c-2.1-0.9-3.9-2.1-5.4-3.6c-1.5-1.6-2.6-3.4-3.5-5.6s-1.2-4.5-1.2-7.1s0.4-4.9,1.2-7.1c0.8-2.2,2-4,3.5-5.6
		c1.5-1.6,3.3-2.8,5.4-3.6c2.1-0.9,4.4-1.3,6.9-1.3c2.5,0,4.8,0.4,6.9,1.3c2.1,0.9,3.9,2.1,5.4,3.6c1.5,1.6,2.6,3.4,3.5,5.6
		C251,420,251.4,422.3,251.4,424.9z M246.7,424.9c0-2.1-0.3-4-0.9-5.7c-0.6-1.7-1.4-3.1-2.4-4.3s-2.3-2.1-3.8-2.7
		c-1.5-0.6-3.2-0.9-5-0.9c-1.8,0-3.5,0.3-5,0.9c-1.5,0.6-2.8,1.5-3.9,2.7c-1.1,1.2-1.9,2.6-2.5,4.3s-0.9,3.6-0.9,5.7
		c0,2.1,0.3,4,0.9,5.7s1.4,3.1,2.5,4.2c1.1,1.2,2.3,2,3.9,2.7c1.5,0.6,3.2,0.9,5,0.9c1.9,0,3.5-0.3,5-0.9c1.5-0.6,2.8-1.5,3.8-2.7
		s1.9-2.6,2.4-4.2C246.4,428.9,246.7,427,246.7,424.9z"/>
	<path class="st0" d="M286.5,407.7c2.2,0,4.1,0.3,5.7,0.8c1.6,0.5,2.9,1.2,4,2.1c1.1,0.9,1.8,2,2.4,3.4c0.5,1.3,0.8,2.8,0.8,4.4
		c0,1.6-0.3,3.1-0.8,4.4s-1.4,2.5-2.5,3.4s-2.4,1.7-4,2.2c-1.6,0.5-3.4,0.8-5.5,0.8H281v12.9h-4.6v-34.4H286.5z M286.5,425.5
		c1.3,0,2.5-0.2,3.5-0.5c1-0.4,1.9-0.8,2.6-1.5c0.7-0.6,1.2-1.4,1.6-2.3c0.4-0.9,0.5-1.8,0.5-2.9c0-2.2-0.7-3.9-2-5.1
		c-1.4-1.2-3.4-1.8-6.2-1.8H281v14.2H286.5z"/>
	<path class="st0" d="M344.6,438.3l0,3.8h-21.2v-34.4h21.2v3.8H328v11.4h13.4v3.6H328v11.7H344.6z"/>
	<path class="st0" d="M394.8,442.1h-4.1c-0.8,0-1.5-0.3-1.9-1l-8.9-12.3c-0.3-0.4-0.6-0.7-0.9-0.8s-0.8-0.3-1.5-0.3H374v14.4h-4.6
		v-34.4h9.7c2.2,0,4.1,0.2,5.6,0.7c1.6,0.4,2.9,1.1,3.9,1.9c1,0.8,1.8,1.8,2.3,3c0.5,1.2,0.7,2.5,0.7,3.9c0,1.2-0.2,2.4-0.6,3.4
		c-0.4,1.1-0.9,2-1.7,2.8s-1.6,1.6-2.7,2.1c-1,0.6-2.2,1-3.6,1.3c0.6,0.3,1.1,0.8,1.5,1.5L394.8,442.1z M378.9,424.4
		c1.3,0,2.5-0.2,3.6-0.5c1-0.3,1.9-0.8,2.6-1.4c0.7-0.6,1.2-1.3,1.6-2.1c0.4-0.8,0.5-1.8,0.5-2.8c0-2-0.7-3.6-2-4.6
		c-1.3-1-3.4-1.6-6-1.6H374v13H378.9z"/>
	<path class="st0" d="M445.6,442.1H442c-0.4,0-0.8-0.1-1-0.3s-0.4-0.5-0.6-0.8l-3.2-8.3h-15.4l-3.2,8.3c-0.1,0.3-0.3,0.5-0.6,0.8
		c-0.3,0.2-0.6,0.3-1,0.3h-3.6l13.8-34.4h4.7L445.6,442.1z M435.9,429.3l-5.4-14c-0.2-0.4-0.3-0.9-0.5-1.5s-0.3-1.1-0.5-1.8
		c-0.3,1.3-0.7,2.4-1,3.2l-5.4,14H435.9z"/>
	<path class="st0" d="M521.5,435c0.3,0,0.5,0.1,0.7,0.3l1.8,2c-1.4,1.6-3.1,2.9-5.1,3.8s-4.4,1.4-7.3,1.4c-2.5,0-4.7-0.4-6.7-1.3
		c-2-0.9-3.7-2.1-5.2-3.6s-2.5-3.4-3.3-5.6c-0.8-2.2-1.2-4.5-1.2-7.1c0-2.6,0.4-5,1.2-7.1c0.8-2.2,2-4,3.4-5.6
		c1.5-1.6,3.3-2.8,5.3-3.6c2.1-0.9,4.3-1.3,6.8-1.3c2.4,0,4.6,0.4,6.5,1.2s3.5,1.8,4.9,3.2l-1.5,2.1c-0.1,0.2-0.2,0.3-0.4,0.4
		c-0.2,0.1-0.4,0.2-0.6,0.2c-0.3,0-0.6-0.2-1.1-0.5c-0.4-0.3-1-0.7-1.6-1c-0.7-0.4-1.5-0.7-2.5-1c-1-0.3-2.2-0.5-3.7-0.5
		c-1.6,0-3.1,0.3-4.5,0.8s-2.6,1.3-3.6,2.3s-1.9,2.2-2.6,3.6s-1.1,3-1.3,4.8h17.3v3.5H500c0.1,1.9,0.5,3.6,1.2,5.1
		c0.7,1.5,1.5,2.8,2.6,3.8c1.1,1,2.3,1.8,3.6,2.4c1.4,0.5,2.9,0.8,4.4,0.8c1,0,1.9-0.1,2.8-0.2s1.6-0.3,2.3-0.6
		c0.7-0.3,1.3-0.6,1.9-1c0.6-0.4,1.2-0.9,1.8-1.4C520.9,435.1,521.2,435,521.5,435z"/>
	<path class="st0" d="M580.2,438.5v10.6c0,0.4-0.1,0.8-0.4,1c-0.3,0.3-0.6,0.4-1.1,0.4h-2.8v-8.4h-27.7v7c0,0.4-0.1,0.8-0.4,1
		c-0.3,0.3-0.6,0.4-1.1,0.4h-2.8v-12h3.5c0.5-0.2,1-0.6,1.5-1.2s1-1.3,1.4-2.3s0.9-2.3,1.3-3.8c0.4-1.5,0.8-3.4,1.1-5.6
		s0.6-4.8,0.9-7.7c0.2-2.9,0.4-6.3,0.6-10.2h20.4v30.7H580.2z M569.9,438.5v-27.1h-11.4c-0.2,3.9-0.5,7.4-0.8,10.3
		c-0.4,3-0.8,5.5-1.2,7.7c-0.5,2.2-1,4-1.6,5.5c-0.6,1.5-1.2,2.7-1.9,3.6H569.9z"/>
	<path class="st0" d="M631.8,407.7v34.4h-4.7v-15.6h-18.6v15.6H604v-34.4h4.7V423h18.6v-15.3H631.8z"/>
	<path class="st0" d="M686.8,442.1h-3.6c-0.4,0-0.8-0.1-1-0.3c-0.3-0.2-0.4-0.5-0.6-0.8l-3.2-8.3h-15.4l-3.2,8.3
		c-0.1,0.3-0.3,0.5-0.6,0.8c-0.3,0.2-0.6,0.3-1,0.3h-3.6l13.8-34.4h4.7L686.8,442.1z M677.1,429.3l-5.4-14c-0.2-0.4-0.3-0.9-0.5-1.5
		c-0.2-0.6-0.3-1.1-0.5-1.8c-0.3,1.3-0.7,2.4-1,3.2l-5.4,14H677.1z"/>
	<path class="st0" d="M732.8,435c0.3,0,0.5,0.1,0.7,0.3l1.8,2c-1.4,1.6-3.1,2.9-5.1,3.8s-4.4,1.4-7.3,1.4c-2.5,0-4.7-0.4-6.7-1.3
		c-2-0.9-3.7-2.1-5.2-3.6s-2.5-3.4-3.3-5.6c-0.8-2.2-1.2-4.5-1.2-7.1c0-2.6,0.4-5,1.2-7.1c0.8-2.2,2-4,3.4-5.6
		c1.5-1.6,3.3-2.8,5.3-3.6c2.1-0.9,4.3-1.3,6.8-1.3c2.4,0,4.6,0.4,6.5,1.2s3.5,1.8,4.9,3.2l-1.5,2.1c-0.1,0.2-0.2,0.3-0.4,0.4
		c-0.2,0.1-0.4,0.2-0.6,0.2c-0.3,0-0.6-0.2-1.1-0.5c-0.4-0.3-1-0.7-1.6-1c-0.7-0.4-1.5-0.7-2.5-1c-1-0.3-2.2-0.5-3.7-0.5
		c-1.6,0-3.1,0.3-4.5,0.8s-2.6,1.3-3.6,2.3s-1.9,2.2-2.6,3.6s-1.1,3-1.3,4.8h17.3v3.5h-17.3c0.1,1.9,0.5,3.6,1.2,5.1
		c0.7,1.5,1.5,2.8,2.6,3.8c1.1,1,2.3,1.8,3.6,2.4c1.4,0.5,2.9,0.8,4.4,0.8c1,0,1.9-0.1,2.8-0.2s1.6-0.3,2.3-0.6
		c0.7-0.3,1.3-0.6,1.9-1c0.6-0.4,1.2-0.9,1.8-1.4C732.3,435.1,732.5,435,732.8,435z"/>
</g>
</svg>
